<mxfile host="app.diagrams.net" modified="2024-07-11T01:11:56.378Z" agent="Mozilla/5.0 (Windows NT 10.0; Win64; x64) AppleWebKit/537.36 (KHTML, like Gecko) Chrome/126.0.0.0 Safari/537.36" etag="iEheQR7yX3yKSVr82Li-" version="24.6.4" type="github">
  <diagram name="페이지-1" id="m_ZT-LOGdum2WPM8zPHV">
    <mxGraphModel dx="1674" dy="738" grid="1" gridSize="10" guides="1" tooltips="1" connect="1" arrows="1" fold="1" page="1" pageScale="1" pageWidth="1169" pageHeight="827" math="0" shadow="0">
      <root>
        <mxCell id="0" />
        <mxCell id="1" parent="0" />
        <mxCell id="CL_8rwJwt6UvbV2igQpo-3" value="홈페이지 접속" style="rounded=1;whiteSpace=wrap;html=1;strokeWidth=2;arcSize=50;" parent="1" vertex="1">
          <mxGeometry x="20" y="30" width="110" height="50" as="geometry" />
        </mxCell>
      </root>
    </mxGraphModel>
  </diagram>
</mxfile>
